{
  "accessors": [
    {
      "bufferView": 2,
      "componentType": 5126,
      "count": 24942,
      "max": [
        2.3492329120635986,
        2.840151071548462,
        2.5122389793395996
      ],
      "min": [
        -2.3493120670318604,
        -2.7711119651794434,
        0.036816999316215515
      ],
      "type": "VEC3"
    },
    {
      "bufferView": 2,
      "byteOffset": 299304,
      "componentType": 5126,
      "count": 24942,
      "max": [
        0.9998005032539368,
        0.9999949932098389,
        1.0
      ],
      "min": [
        -0.9998443722724915,
        -0.9996969103813171,
        -0.9999985098838806
      ],
      "type": "VEC3"
    },
    {
      "bufferView": 1,
      "componentType": 5126,
      "count": 24942,
      "max": [
        0.9900000095367432,
        0.9900000095367432
      ],
      "min": [
        0.009999999776482582,
        0.022098999470472336
      ],
      "type": "VEC2"
    },
    {
      "bufferView": 0,
      "componentType": 5125,
      "count": 138624,
      "type": "SCALAR"
    },
    {
      "bufferView": 2,
      "byteOffset": 598608,
      "componentType": 5126,
      "count": 4076,
      "max": [
        0.660493016242981,
        -1.5402770042419434,
        2.489919900894165
      ],
      "min": [
        -0.660493016242981,
        -1.9600809812545776,
        2.073245048522949
      ],
      "type": "VEC3"
    },
    {
      "bufferView": 2,
      "byteOffset": 647520,
      "componentType": 5126,
      "count": 4076,
      "max": [
        0.9989357590675354,
        0.9997270107269287,
        0.9985054731369019
      ],
      "min": [
        -0.9989357590675354,
        -0.9994382262229919,
        -0.9975965023040771
      ],
      "type": "VEC3"
    },
    {
      "bufferView": 1,
      "byteOffset": 199536,
      "componentType": 5126,
      "count": 4076,
      "max": [
        0.9363920092582703,
        0.9900000095367432
      ],
      "min": [
        0.009999999776482582,
        0.009999999776482582
      ],
      "type": "VEC2"
    },
    {
      "bufferView": 0,
      "byteOffset": 554496,
      "componentType": 5125,
      "count": 21504,
      "type": "SCALAR"
    },
    {
      "bufferView": 2,
      "byteOffset": 696432,
      "componentType": 5126,
      "count": 497,
      "max": [
        0.3296529948711395,
        -1.6006929874420166,
        2.146733045578003
      ],
      "min": [
        -0.3296540081501007,
        -2.425769090652466,
        1.822314977645874
      ],
      "type": "VEC3"
    },
    {
      "bufferView": 2,
      "byteOffset": 702396,
      "componentType": 5126,
      "count": 497,
      "max": [
        0.9810737371444702,
        0.9987866282463074,
        0.9995253682136536
      ],
      "min": [
        -0.9810737371444702,
        -0.9747463464736938,
        -0.9942823648452759
      ],
      "type": "VEC3"
    },
    {
      "bufferView": 1,
      "byteOffset": 232144,
      "componentType": 5126,
      "count": 497,
      "max": [
        0.9819999933242798,
        0.9900000095367432
      ],
      "min": [
        0.009999999776482582,
        0.009999999776482582
      ],
      "type": "VEC2"
    },
    {
      "bufferView": 0,
      "byteOffset": 640512,
      "componentType": 5125,
      "count": 2574,
      "type": "SCALAR"
    }
  ],
  "asset": {
    "extras": {
      "author": "MD Umair Khan (https://sketchfab.com/MD_Umair)",
      "license": "SKETCHFAB Standard (https://sketchfab.com/licenses)",
      "source": "https://sketchfab.com/3d-models/tree-frog-8c69f2d5b05b4c879e5fd1c799051499",
      "title": "Tree Frog"
    },
    "generator": "Sketchfab-16.13.0",
    "version": "2.0"
  },
  "bufferViews": [
    {
      "buffer": 0,
      "byteLength": 650808,
      "name": "floatBufferViews",
      "target": 34963
    },
    {
      "buffer": 0,
      "byteLength": 236120,
      "byteOffset": 650808,
      "byteStride": 8,
      "name": "floatBufferViews",
      "target": 34962
    },
    {
      "buffer": 0,
      "byteLength": 708360,
      "byteOffset": 886928,
      "byteStride": 12,
      "name": "floatBufferViews",
      "target": 34962
    }
  ],
  "buffers": [
    {
      "byteLength": 1595288,
      "uri": "scene.bin"
    }
  ],
  "materials": [
    {
      "doubleSided": true,
      "name": "aiStandardSurface1SG",
      "pbrMetallicRoughness": {
        "metallicFactor": 0.0
      }
    },
    {
      "doubleSided": true,
      "name": "aiStandardSurface2SG",
      "pbrMetallicRoughness": {
        "metallicFactor": 0.0
      }
    },
    {
      "doubleSided": true,
      "name": "aiStandardSurface3SG",
      "pbrMetallicRoughness": {
        "metallicFactor": 0.0
      }
    }
  ],
  "meshes": [
    {
      "name": "Object_0",
      "primitives": [
        {
          "attributes": {
            "NORMAL": 1,
            "POSITION": 0,
            "TEXCOORD_0": 2
          },
          "indices": 3,
          "material": 0,
          "mode": 4
        }
      ]
    },
    {
      "name": "Object_1",
      "primitives": [
        {
          "attributes": {
            "NORMAL": 5,
            "POSITION": 4,
            "TEXCOORD_0": 6
          },
          "indices": 7,
          "material": 1,
          "mode": 4
        }
      ]
    },
    {
      "name": "Object_2",
      "primitives": [
        {
          "attributes": {
            "NORMAL": 9,
            "POSITION": 8,
            "TEXCOORD_0": 10
          },
          "indices": 11,
          "material": 2,
          "mode": 4
        }
      ]
    }
  ],
  "nodes": [
    {
      "children": [
        1
      ],
      "matrix": [
        1.0,
        0.0,
        0.0,
        0.0,
        0.0,
        2.220446049250313e-16,
        -1.0,
        0.0,
        0.0,
        1.0,
        2.220446049250313e-16,
        0.0,
        0.0,
        0.0,
        0.0,
        1.0
      ],
      "name": "Sketchfab_model"
    },
    {
      "children": [
        2,
        3,
        4
      ],
      "name": "TF Geo.obj.cleaner.materialmerger.gles"
    },
    {
      "mesh": 0,
      "name": "Object_2"
    },
    {
      "mesh": 1,
      "name": "Object_3"
    },
    {
      "mesh": 2,
      "name": "Object_4"
    }
  ],
  "scene": 0,
  "scenes": [
    {
      "name": "Sketchfab_Scene",
      "nodes": [
        0
      ]
    }
  ]
}
